<svg version="1.1" id="Layer_1" xmlns="http://www.w3.org/2000/svg" xmlns:xlink="http://www.w3.org/1999/xlink" x="0px" y="0px"
	 width="100%" viewBox="0 0 400 566" enable-background="new 0 0 400 566" xml:space="preserve">
<path fill="#CD0000" opacity="1.000000" stroke="none" 
	d="
M394.000000,567.000000 
	C268.977356,567.000000 143.954727,567.000000 18.541599,566.538208 
	C18.165676,565.244019 18.192989,564.411499 18.192999,563.579041 
	C18.195097,377.547302 18.195757,191.515594 18.187449,5.483861 
	C18.187382,3.989238 18.065178,2.494620 18.000000,1.000000 
	C143.022644,1.000000 268.045288,1.000000 393.637878,1.185366 
	C394.353149,1.617151 394.533813,1.834085 394.796143,2.486748 
	C394.853088,189.195633 394.866211,375.439301 394.838287,561.682983 
	C394.838013,563.455383 394.291504,565.227661 394.000000,567.000000 
z"/>
<path fill="#02007F" opacity="1.000000" stroke="none" 
	d="
M17.531986,1.000000 
	C18.065178,2.494620 18.187382,3.989238 18.187449,5.483861 
	C18.195757,191.515594 18.195097,377.547302 18.192999,563.579041 
	C18.192989,564.411499 18.165676,565.244019 18.075558,566.538208 
	C12.337455,567.000000 6.674910,567.000000 1.037794,567.000000 
	C1.037794,378.333344 1.037794,189.666656 1.037794,1.000000 
	C6.405050,1.000000 11.734512,1.000000 17.531986,1.000000 
z"/>
<path fill="#FEC800" opacity="1.000000" stroke="none" 
	d="
M394.497925,567.000000 
	C394.291504,565.227661 394.838013,563.455383 394.838287,561.682983 
	C394.866211,375.439301 394.853088,189.195633 394.886688,2.238223 
	C394.953979,1.349654 394.976990,1.174827 395.000000,1.000000 
	C396.998291,1.000000 398.996582,1.000000 400.995087,1.000000 
	C400.995300,189.666672 400.995300,378.333344 400.992981,567.000000 
	C398.992371,567.000000 396.994080,567.000000 394.497925,567.000000 
z"/>
<path fill="#D72800" opacity="1.000000" stroke="none" 
	d="
M394.750000,1.000000 
	C394.976990,1.174827 394.953979,1.349654 394.840454,1.773006 
	C394.533813,1.834085 394.353149,1.617151 394.103943,1.185366 
	C394.000000,1.000000 394.500000,1.000000 394.750000,1.000000 
z"/>
</svg>