<svg width="12" height="8" viewBox="0 0 12 8" fill="none" xmlns="http://www.w3.org/2000/svg">
<path d="M6 2.5C5.60218 2.5 5.22064 2.65804 4.93934 2.93934C4.65804 3.22064 4.5 3.60218 4.5 4C4.5 4.39782 4.65804 4.77936 4.93934 5.06066C5.22064 5.34196 5.60218 5.5 6 5.5C6.39783 5.5 6.77936 5.34196 7.06066 5.06066C7.34197 4.77936 7.5 4.39782 7.5 4C7.5 3.60218 7.34197 3.22064 7.06066 2.93934C6.77936 2.65804 6.39783 2.5 6 2.5ZM6 6.5C5.33696 6.5 4.70107 6.23661 4.23223 5.76777C3.76339 5.29893 3.5 4.66304 3.5 4C3.5 3.33696 3.76339 2.70107 4.23223 2.23223C4.70107 1.76339 5.33696 1.5 6 1.5C6.66304 1.5 7.29893 1.76339 7.76777 2.23223C8.23661 2.70107 8.5 3.33696 8.5 4C8.5 4.66304 8.23661 5.29893 7.76777 5.76777C7.29893 6.23661 6.66304 6.5 6 6.5ZM6 0.25C3.5 0.25 1.365 1.805 0.5 4C1.365 6.195 3.5 7.75 6 7.75C8.5 7.75 10.635 6.195 11.5 4C10.635 1.805 8.5 0.25 6 0.25Z" fill="white"/>
</svg>
