<svg width="23" height="17" viewBox="0 0 23 17" fill="none" xmlns="http://www.w3.org/2000/svg">
<path d="M1.27778 16.5C0.915745 16.5 0.612486 16.372 0.368004 16.116C0.123523 15.86 0.000856258 15.5435 4.40612e-06 15.1666C-0.000847445 14.7898 0.121819 14.4733 0.368004 14.2173C0.61419 13.9613 0.917448 13.8333 1.27778 13.8333H21.7222C22.0843 13.8333 22.3879 13.9613 22.6333 14.2173C22.8786 14.4733 23.0008 14.7898 23 15.1666C22.9991 15.5435 22.8765 15.8604 22.632 16.1173C22.3875 16.3742 22.0843 16.5018 21.7222 16.5H1.27778ZM1.27778 9.83332C0.915745 9.83332 0.612486 9.70532 0.368004 9.44932C0.123523 9.19332 0.000856258 8.87688 4.40612e-06 8.49999C-0.000847445 8.1231 0.121819 7.80666 0.368004 7.55066C0.61419 7.29466 0.917448 7.16666 1.27778 7.16666H21.7222C22.0843 7.16666 22.3879 7.29466 22.6333 7.55066C22.8786 7.80666 23.0008 8.1231 23 8.49999C22.9991 8.87688 22.8765 9.19377 22.632 9.45066C22.3875 9.70755 22.0843 9.8351 21.7222 9.83332H1.27778ZM1.27778 3.16666C0.915745 3.16666 0.612486 3.03866 0.368004 2.78266C0.123523 2.52666 0.000856258 2.21022 4.40612e-06 1.83333C-0.000847445 1.45644 0.121819 1.14 0.368004 0.884C0.61419 0.628 0.917448 0.5 1.27778 0.5H21.7222C22.0843 0.5 22.3879 0.628 22.6333 0.884C22.8786 1.14 23.0008 1.45644 23 1.83333C22.9991 2.21022 22.8765 2.52711 22.632 2.784C22.3875 3.04089 22.0843 3.16844 21.7222 3.16666H1.27778Z" fill="white"/>
</svg>
