<svg width="40" height="39" viewBox="0 0 40 39" fill="none" xmlns="http://www.w3.org/2000/svg">
<rect x="1.32227" y="1.13794" width="37.1186" height="37.1121" rx="9.25" fill="white" fill-opacity="0.4"/>
<rect x="1.32227" y="1.13794" width="37.1186" height="37.1121" rx="9.25" stroke="white" stroke-width="1.5"/>
<path d="M28.1579 12.705H23.606C22.6291 12.705 21.6742 12.9855 20.8525 13.5147L19.8816 14.1374L18.9108 13.5147C18.0899 12.9856 17.1339 12.7044 16.1573 12.705H11.6054C11.2532 12.705 10.9688 12.9895 10.9688 13.3416V24.6419C10.9688 24.994 11.2532 25.2785 11.6054 25.2785H16.1573C17.1342 25.2785 18.0891 25.559 18.9108 26.0882L19.7941 26.6572C19.82 26.6731 19.8498 26.6831 19.8797 26.6831C19.9095 26.6831 19.9393 26.6751 19.9652 26.6572L20.8485 26.0882C21.6722 25.559 22.6291 25.2785 23.606 25.2785H28.1579C28.51 25.2785 28.7945 24.994 28.7945 24.6419V13.3416C28.7945 12.9895 28.51 12.705 28.1579 12.705ZM17.733 20.5137C17.733 20.5953 17.6693 20.6629 17.5917 20.6629H13.8953C13.8177 20.6629 13.754 20.5953 13.754 20.5137V19.6184C13.754 19.5368 13.8177 19.4692 13.8953 19.4692H17.5898C17.6673 19.4692 17.731 19.5368 17.731 19.6184V20.5137H17.733ZM17.733 17.7284C17.733 17.81 17.6693 17.8776 17.5917 17.8776H13.8953C13.8177 17.8776 13.754 17.81 13.754 17.7284V16.8331C13.754 16.7516 13.8177 16.6839 13.8953 16.6839H17.5898C17.6673 16.6839 17.731 16.7516 17.731 16.8331V17.7284H17.733ZM26.0093 20.5137C26.0093 20.5953 25.9456 20.6629 25.868 20.6629H22.1715C22.094 20.6629 22.0303 20.5953 22.0303 20.5137V19.6184C22.0303 19.5368 22.094 19.4692 22.1715 19.4692H25.866C25.9436 19.4692 26.0073 19.5368 26.0073 19.6184V20.5137H26.0093ZM26.0093 17.7284C26.0093 17.81 25.9456 17.8776 25.868 17.8776H22.1715C22.094 17.8776 22.0303 17.81 22.0303 17.7284V16.8331C22.0303 16.7516 22.094 16.6839 22.1715 16.6839H25.866C25.9436 16.6839 26.0073 16.7516 26.0073 16.8331V17.7284H26.0093Z" fill="white"/>
</svg>
