<svg width="40" height="39" viewBox="0 0 40 39" fill="none" xmlns="http://www.w3.org/2000/svg">
<rect x="1.55933" y="1.13794" width="37.1186" height="37.1121" rx="9.25" fill="white" fill-opacity="0.4"/>
<rect x="1.55933" y="1.13794" width="37.1186" height="37.1121" rx="9.25" stroke="white" stroke-width="1.5"/>
<path d="M25.6187 19.694C25.2208 19.694 24.8393 19.5359 24.558 19.2546C24.2767 18.9733 24.1187 18.5918 24.1187 18.194C24.1187 17.7961 24.2767 17.4146 24.558 17.1333C24.8393 16.852 25.2208 16.694 25.6187 16.694C26.0165 16.694 26.398 16.852 26.6793 17.1333C26.9606 17.4146 27.1187 17.7961 27.1187 18.194C27.1187 18.5918 26.9606 18.9733 26.6793 19.2546C26.398 19.5359 26.0165 19.694 25.6187 19.694ZM22.6187 15.694C22.2208 15.694 21.8393 15.5359 21.558 15.2546C21.2767 14.9733 21.1187 14.5918 21.1187 14.194C21.1187 13.7961 21.2767 13.4146 21.558 13.1333C21.8393 12.852 22.2208 12.694 22.6187 12.694C23.0165 12.694 23.398 12.852 23.6793 13.1333C23.9606 13.4146 24.1187 13.7961 24.1187 14.194C24.1187 14.5918 23.9606 14.9733 23.6793 15.2546C23.398 15.5359 23.0165 15.694 22.6187 15.694ZM17.6187 15.694C17.2208 15.694 16.8393 15.5359 16.558 15.2546C16.2767 14.9733 16.1187 14.5918 16.1187 14.194C16.1187 13.7961 16.2767 13.4146 16.558 13.1333C16.8393 12.852 17.2208 12.694 17.6187 12.694C18.0165 12.694 18.398 12.852 18.6793 13.1333C18.9606 13.4146 19.1187 13.7961 19.1187 14.194C19.1187 14.5918 18.9606 14.9733 18.6793 15.2546C18.398 15.5359 18.0165 15.694 17.6187 15.694ZM14.6187 19.694C14.2208 19.694 13.8393 19.5359 13.558 19.2546C13.2767 18.9733 13.1187 18.5918 13.1187 18.194C13.1187 17.7961 13.2767 17.4146 13.558 17.1333C13.8393 16.852 14.2208 16.694 14.6187 16.694C15.0165 16.694 15.398 16.852 15.6793 17.1333C15.9606 17.4146 16.1187 17.7961 16.1187 18.194C16.1187 18.5918 15.9606 18.9733 15.6793 19.2546C15.398 19.5359 15.0165 19.694 14.6187 19.694ZM20.1187 10.694C17.7317 10.694 15.4425 11.6422 13.7547 13.33C12.0669 15.0178 11.1187 17.307 11.1187 19.694C11.1187 22.0809 12.0669 24.3701 13.7547 26.0579C15.4425 27.7458 17.7317 28.694 20.1187 28.694C20.5165 28.694 20.898 28.5359 21.1793 28.2546C21.4606 27.9733 21.6187 27.5918 21.6187 27.194C21.6187 26.804 21.4687 26.454 21.2287 26.194C20.9987 25.924 20.8487 25.574 20.8487 25.194C20.8487 24.7961 21.0067 24.4146 21.288 24.1333C21.5693 23.852 21.9508 23.694 22.3487 23.694H24.1187C25.4447 23.694 26.7165 23.1672 27.6542 22.2295C28.5919 21.2918 29.1187 20.0201 29.1187 18.694C29.1187 14.274 25.0887 10.694 20.1187 10.694Z" fill="white"/>
</svg>
