<svg width="39" height="39" viewBox="0 0 39 39" fill="none" xmlns="http://www.w3.org/2000/svg">
<rect x="0.940918" y="1.13794" width="37.1186" height="37.1121" rx="9.25" fill="white" fill-opacity="0.4"/>
<rect x="0.940918" y="1.13794" width="37.1186" height="37.1121" rx="9.25" stroke="white" stroke-width="1.5"/>
<path d="M19.1271 9.69397C24.444 9.69397 28.7539 14.0039 28.7539 19.3208C28.7539 24.6377 24.444 28.9476 19.1271 28.9476C13.8102 28.9476 9.50024 24.6377 9.50024 19.3208C9.50024 14.0039 13.8102 9.69397 19.1271 9.69397ZM19.1271 23.1715C18.8718 23.1715 18.6269 23.2729 18.4464 23.4535C18.2658 23.634 18.1644 23.8789 18.1644 24.1342C18.1644 24.3895 18.2658 24.6344 18.4464 24.8149C18.6269 24.9954 18.8718 25.0969 19.1271 25.0969C19.3824 25.0969 19.6273 24.9954 19.8078 24.8149C19.9883 24.6344 20.0898 24.3895 20.0898 24.1342C20.0898 23.8789 19.9883 23.634 19.8078 23.4535C19.6273 23.2729 19.3824 23.1715 19.1271 23.1715ZM19.1271 14.026C18.2016 14.026 17.3139 14.3937 16.6595 15.0481C16.005 15.7026 15.6374 16.5902 15.6374 17.5157C15.6374 17.7711 15.7388 18.0159 15.9193 18.1965C16.0999 18.377 16.3447 18.4784 16.6 18.4784C16.8554 18.4784 17.1002 18.377 17.2808 18.1965C17.4613 18.0159 17.5627 17.7711 17.5627 17.5157C17.563 17.2318 17.6406 16.9533 17.7872 16.7101C17.9338 16.4669 18.1438 16.2681 18.3947 16.1352C18.6456 16.0022 18.928 15.9401 19.2115 15.9554C19.4951 15.9708 19.7691 16.063 20.0042 16.2222C20.2393 16.3814 20.4267 16.6016 20.5462 16.8592C20.6657 17.1168 20.7128 17.402 20.6825 17.6844C20.6522 17.9667 20.5457 18.2355 20.3743 18.4618C20.2029 18.6882 19.9731 18.8637 19.7095 18.9694C19.0587 19.2293 18.1644 19.8955 18.1644 21.0055V21.2461C18.1644 21.5015 18.2658 21.7463 18.4464 21.9269C18.6269 22.1074 18.8718 22.2088 19.1271 22.2088C19.3824 22.2088 19.6273 22.1074 19.8078 21.9269C19.9883 21.7463 20.0898 21.5015 20.0898 21.2461C20.0898 21.0112 20.1379 20.8938 20.341 20.7937L20.4248 20.7552C21.1765 20.4528 21.7995 19.8983 22.1872 19.1869C22.5749 18.4754 22.703 17.6513 22.5496 16.8557C22.3961 16.0602 21.9707 15.3427 21.3463 14.8265C20.7219 14.3102 19.9373 14.0272 19.1271 14.026Z" fill="white"/>
</svg>
