<svg width="13" height="14" viewBox="0 0 13 14" fill="none" xmlns="http://www.w3.org/2000/svg">
<g clip-path="url(#clip0_87_288)">
<path d="M12.5058 2.66232C12.7912 1.8728 12.0262 1.10772 11.2366 1.3938L1.5873 4.88355C0.795136 5.17029 0.699337 6.25117 1.42807 6.67335L4.5082 8.45655L7.25864 5.7061C7.38325 5.58575 7.55014 5.51916 7.72337 5.52067C7.8966 5.52217 8.06231 5.59166 8.1848 5.71415C8.3073 5.83665 8.37678 6.00236 8.37829 6.17559C8.37979 6.34882 8.3132 6.51571 8.19285 6.64032L5.44241 9.39076L7.22627 12.4709C7.64778 13.1996 8.72867 13.1032 9.01541 12.3117L12.5058 2.66232Z" fill="white"/>
</g>
<defs>
<clipPath id="clip0_87_288">
<rect width="11.6335" height="14" fill="white" transform="translate(0.93335)"/>
</clipPath>
</defs>
</svg>
