<svg width="17" height="18" viewBox="0 0 17 18" fill="none" xmlns="http://www.w3.org/2000/svg">
<path d="M12.75 0.5C12.5246 0.5 12.3084 0.589553 12.149 0.748959C11.9896 0.908365 11.9 1.12457 11.9 1.35C11.9 1.57543 11.9896 1.79163 12.149 1.95104C12.3084 2.11045 12.5246 2.2 12.75 2.2H14.0981L10.4491 5.84905C10.2942 6.00936 10.2085 6.22407 10.2105 6.44694C10.2124 6.66981 10.3018 6.883 10.4594 7.0406C10.617 7.19819 10.8302 7.28759 11.0531 7.28952C11.2759 7.29146 11.4906 7.20578 11.651 7.05095L15.3 3.4019V4.75C15.3 4.97543 15.3896 5.19163 15.549 5.35104C15.7084 5.51045 15.9246 5.6 16.15 5.6C16.3754 5.6 16.5916 5.51045 16.751 5.35104C16.9104 5.19163 17 4.97543 17 4.75V1.35C17 1.12457 16.9104 0.908365 16.751 0.748959C16.5916 0.589553 16.3754 0.5 16.15 0.5H12.75ZM1.7 14.5981V13.25C1.7 13.0246 1.61045 12.8084 1.45104 12.649C1.29163 12.4896 1.07543 12.4 0.85 12.4C0.624566 12.4 0.408365 12.4896 0.248959 12.649C0.0895533 12.8084 0 13.0246 0 13.25V16.65C0 16.8754 0.0895533 17.0916 0.248959 17.251C0.408365 17.4104 0.624566 17.5 0.85 17.5H4.25C4.47543 17.5 4.69163 17.4104 4.85104 17.251C5.01045 17.0916 5.1 16.8754 5.1 16.65C5.1 16.4246 5.01045 16.2084 4.85104 16.049C4.69163 15.8896 4.47543 15.8 4.25 15.8H2.9019L6.55095 12.151C6.70578 11.9906 6.79146 11.7759 6.78952 11.5531C6.78759 11.3302 6.69819 11.117 6.5406 10.9594C6.383 10.8018 6.16981 10.7124 5.94694 10.7105C5.72407 10.7085 5.50936 10.7942 5.34905 10.9491L1.7 14.5981Z" fill="#989797"/>
</svg>
